# Blender 4.0.2
# www.blender.org
mtllib deck3.mtl
o Cube
v -0.675000 -0.050000 0.497000
v -0.675000 0.050000 0.497000
v -0.675000 -0.050000 -0.497000
v -0.675000 0.050000 -0.497000
v 0.675000 -0.050000 0.497000
v 0.675000 0.050000 0.497000
v 0.675000 -0.050000 -0.497000
v 0.675000 0.050000 -0.497000
vn -1.0000 -0.0000 -0.0000
vn -0.0000 -0.0000 -1.0000
vn 1.0000 -0.0000 -0.0000
vn -0.0000 -0.0000 1.0000
vn -0.0000 -1.0000 -0.0000
vn -0.0000 1.0000 -0.0000
vt 0.625000 0.000000
vt 0.375000 0.250000
vt 0.375000 0.000000
vt 0.625000 0.250000
vt 0.375000 0.500000
vt 0.625000 0.500000
vt 0.375000 0.750000
vt 0.908516 0.863587
vt 0.999907 0.000093
vt 0.999907 0.863587
vt 0.125000 0.750000
vt 0.125000 0.500000
vt 0.000093 0.000093
vt 0.000093 0.863587
vt 0.625000 0.750000
vt 0.908516 0.000093
s 0
usemtl Material.004
f 2/1/1 3/2/1 1/3/1
f 4/4/2 7/5/2 3/2/2
f 8/6/3 5/7/3 7/5/3
f 6/8/4 1/9/4 5/10/4
f 7/5/5 1/11/5 3/12/5
f 4/13/6 6/8/6 8/14/6
f 2/1/1 4/4/1 3/2/1
f 4/4/2 8/6/2 7/5/2
f 8/6/3 6/15/3 5/7/3
f 6/8/4 2/16/4 1/9/4
f 7/5/5 5/7/5 1/11/5
f 4/13/6 2/16/6 6/8/6
